<svg width="720" height="677" viewBox="0 0 720 677" fill="none" xmlns="http://www.w3.org/2000/svg">
<g clip-path="url(#clip0_918_106)">
<path d="M670.803 676.116H30.8569C22.676 676.107 14.8327 672.853 9.04793 667.068C3.26312 661.283 0.00919195 653.44 0 645.259V369.808C0.00930273 361.627 3.26326 353.784 9.04804 347.999C14.8328 342.214 22.676 338.96 30.8569 338.951H670.803C678.984 338.96 686.827 342.214 692.612 347.999C698.397 353.784 701.651 361.627 701.66 369.808V645.259C701.651 653.44 698.397 661.283 692.612 667.068C686.827 672.853 678.984 676.107 670.803 676.116Z" fill="white"/>
<path d="M670.803 676.116H30.8569C22.676 676.107 14.8327 672.853 9.04793 667.068C3.26312 661.283 0.00919195 653.44 0 645.259V369.808C0.0093058 361.627 3.26326 353.784 9.04804 347.999C14.8328 342.215 22.676 338.961 30.8569 338.951C221.764 318.125 439.139 321.897 670.803 338.951C678.984 338.961 686.827 342.215 692.612 347.999C698.397 353.784 701.651 361.627 701.66 369.808C725.642 449.676 726.58 563.197 701.66 645.259C701.651 653.44 698.397 661.283 692.612 667.068C686.827 672.853 678.984 676.107 670.803 676.116ZM30.8569 341.634C27.1571 341.634 23.4935 342.363 20.0753 343.779C16.6571 345.195 13.5513 347.27 10.9351 349.886C8.31892 352.503 6.24365 355.608 4.82779 359.027C3.41192 362.445 2.68319 366.108 2.68319 369.808V645.259C2.68319 652.731 5.65149 659.897 10.9351 665.181C16.2187 670.465 23.3848 673.433 30.8569 673.433H670.803C678.275 673.433 685.441 670.465 690.725 665.181C696.009 659.897 698.977 652.731 698.977 645.259V521.079C698.977 473.487 680.071 427.845 646.419 394.192C612.767 360.54 567.124 341.634 519.533 341.634L30.8569 341.634Z" fill="#E6E6E6"/>
<path d="M470.952 379.771H390.531C390.09 379.773 389.653 379.687 389.245 379.52C388.837 379.352 388.466 379.105 388.153 378.794C387.841 378.483 387.593 378.113 387.424 377.705C387.255 377.298 387.167 376.861 387.167 376.42C387.167 375.979 387.255 375.542 387.424 375.135C387.593 374.728 387.841 374.358 388.153 374.046C388.466 373.735 388.837 373.489 389.245 373.321C389.653 373.153 390.09 373.068 390.531 373.069H470.952C471.393 373.068 471.83 373.153 472.238 373.321C472.646 373.489 473.017 373.735 473.329 374.046C473.642 374.358 473.89 374.728 474.059 375.135C474.228 375.542 474.315 375.979 474.315 376.42C474.315 376.861 474.228 377.298 474.059 377.705C473.89 378.113 473.642 378.483 473.329 378.794C473.017 379.105 472.646 379.352 472.238 379.52C471.83 379.687 471.393 379.773 470.952 379.771V379.771Z" fill="#EBFF05"/>
<path d="M401.052 483.456H320.631C320.19 483.458 319.753 483.372 319.345 483.205C318.937 483.037 318.566 482.79 318.253 482.479C317.941 482.168 317.693 481.798 317.524 481.391C317.354 480.983 317.267 480.546 317.267 480.105C317.267 479.664 317.354 479.227 317.524 478.82C317.693 478.413 317.941 478.043 318.253 477.731C318.566 477.42 318.937 477.174 319.345 477.006C319.753 476.838 320.19 476.753 320.631 476.754H401.052C401.493 476.753 401.93 476.838 402.338 477.006C402.746 477.174 403.117 477.42 403.429 477.731C403.742 478.043 403.99 478.413 404.159 478.82C404.328 479.227 404.415 479.664 404.415 480.105C404.415 480.546 404.328 480.983 404.159 481.391C403.99 481.798 403.742 482.168 403.429 482.479C403.117 482.79 402.746 483.037 402.338 483.205C401.93 483.372 401.493 483.458 401.052 483.456V483.456Z" fill="#EBFF05"/>
<path d="M464.565 476.554C461.197 471.769 458.401 466.607 456.234 461.172C456.169 461.008 456.056 460.867 455.91 460.768C455.763 460.669 455.591 460.616 455.414 460.616C455.238 460.616 455.065 460.669 454.919 460.768C454.773 460.867 454.66 461.008 454.595 461.172C452.429 466.607 449.633 471.769 446.266 476.554C446.154 476.707 446.094 476.893 446.095 477.084C446.097 477.274 446.159 477.459 446.274 477.611C446.389 477.763 446.55 477.874 446.732 477.928C446.915 477.982 447.11 477.975 447.289 477.909L454.249 475.391V518.478H456.579V475.391L463.542 477.91C463.721 477.976 463.916 477.982 464.099 477.928C464.281 477.875 464.442 477.764 464.557 477.612C464.671 477.46 464.734 477.275 464.736 477.084C464.737 476.894 464.677 476.708 464.565 476.554V476.554Z" fill="#3F3D56"/>
<path d="M390.994 400.592C390.929 400.428 390.816 400.287 390.67 400.188C390.523 400.089 390.351 400.036 390.174 400.036C389.998 400.036 389.825 400.089 389.679 400.188C389.533 400.287 389.42 400.428 389.355 400.592C387.189 406.027 384.393 411.189 381.026 415.974C380.914 416.127 380.854 416.313 380.855 416.504C380.857 416.694 380.92 416.879 381.034 417.031C381.149 417.183 381.31 417.294 381.492 417.348C381.675 417.402 381.87 417.395 382.049 417.329L389.009 414.811V457.898H391.339V414.811L398.302 417.33C398.481 417.396 398.676 417.402 398.859 417.348C399.041 417.295 399.202 417.184 399.317 417.031C399.431 416.879 399.494 416.695 399.496 416.504C399.497 416.314 399.437 416.128 399.325 415.974C395.957 411.189 393.161 406.027 390.994 400.592V400.592Z" fill="#3F3D56"/>
<path d="M325.754 497.287C325.689 497.123 325.575 496.982 325.429 496.883C325.283 496.784 325.111 496.731 324.934 496.731C324.758 496.731 324.585 496.784 324.439 496.884C324.293 496.983 324.18 497.123 324.115 497.287C321.949 502.722 319.153 507.885 315.786 512.669C315.673 512.823 315.614 513.009 315.615 513.199C315.617 513.39 315.679 513.574 315.794 513.727C315.909 513.879 316.069 513.99 316.252 514.043C316.435 514.097 316.63 514.091 316.809 514.025L323.769 511.507V554.593H326.099V511.507L333.062 514.025C333.241 514.091 333.436 514.097 333.618 514.044C333.801 513.99 333.962 513.879 334.077 513.727C334.191 513.575 334.254 513.39 334.255 513.199C334.257 513.009 334.197 512.823 334.085 512.669C330.717 507.884 327.921 502.722 325.754 497.287V497.287Z" fill="#3F3D56"/>
<path d="M611.525 532.458V513.818C574.334 486.461 553.717 486.173 541.624 491.683C526.275 498.676 521.257 516.557 515.488 532.458H611.525Z" fill="#F2F2F2"/>
<path d="M312.271 604.687C304.21 598.389 300.717 581.36 284.159 576.727C274.502 574.025 266.358 577.211 252.704 582.552C234.71 589.591 226.781 597.574 216.132 604.687H312.271Z" fill="#F2F2F2"/>
<path d="M348.129 572.067C337.339 585.736 332.071 599.35 325.195 604.687H611.525V572.067H348.129Z" fill="#F2F2F2"/>
<path d="M514.191 535.953C509.785 547.473 504.515 557.379 493.859 560.418C475.101 565.767 466.687 542.129 430.949 538.283C427.305 537.89 395.674 534.924 368.039 553.428C361.706 557.687 355.976 562.781 351.005 568.573H611.525V535.953H514.191Z" fill="#F2F2F2"/>
<path d="M398.329 558.088C407.98 558.088 415.804 550.264 415.804 540.613C415.804 530.962 407.98 523.138 398.329 523.138C388.678 523.138 380.854 530.962 380.854 540.613C380.854 550.264 388.678 558.088 398.329 558.088Z" fill="#EBFF05"/>
<path d="M185.604 656.087L202.222 656.086L210.127 591.985L185.6 591.987L185.604 656.087Z" fill="#FFB6B6"/>
<path d="M185.019 673.422L236.122 673.42V672.774C236.122 667.499 234.026 662.44 230.296 658.71C226.566 654.98 221.507 652.884 216.231 652.884H216.23L206.895 645.802L189.479 652.885L185.018 652.885L185.019 673.422Z" fill="#2F2E41"/>
<path d="M194.954 588.947L181.445 598.625L137.682 551.127L157.62 536.841L194.954 588.947Z" fill="#FFB6B6"/>
<path d="M205.527 602.698L163.987 632.464L163.61 631.938C160.538 627.65 159.295 622.317 160.154 617.112C161.013 611.907 163.905 607.257 168.193 604.184L168.194 604.183L171.656 592.99L189.939 588.602L193.565 586.004L205.527 602.698Z" fill="#2F2E41"/>
<path d="M132.643 291.442C132.643 291.442 29.6119 402.303 47.4326 434.8C65.2533 467.296 151.212 578.414 151.212 578.414L174.778 551.355C154.972 504.36 133.661 463.287 108.799 436.183L180.84 382.964C180.84 382.964 186.142 471.061 181.78 484.903C177.419 498.745 170.081 491.407 177.419 498.745C184.757 506.083 188.458 507.43 184.511 511.998C180.564 516.566 177.725 620.626 177.725 620.626H211.624C211.624 620.626 243.259 428.916 241.263 421.899C239.267 414.883 240.412 418.1 240.364 409.153C240.316 400.207 254.782 326.915 254.782 326.915L132.643 291.442Z" fill="#2F2E41"/>
<path d="M202.578 83.9077L170.081 86.0043L148.757 113.315L113.276 140.353L135.788 208.867C135.788 208.867 134.679 243.881 130.89 248.281C127.102 252.68 120.812 247.439 127.102 256.873C130.936 262.852 133.107 269.744 133.391 276.841C133.391 276.841 97.5514 306.667 110.329 314.529C123.107 322.391 148.916 301.949 162.119 314.004C175.322 326.06 263.031 350.335 263.378 333.398C263.725 316.46 241.477 184.203 241.477 184.203L246.605 120.597L217.253 100.68L202.578 83.9077Z" fill="#50B848"/>
<path d="M151.141 351.15L140.126 317.991L120.305 321.641L133.199 356.284C132.415 358.314 132.213 360.522 132.615 362.661C133.017 364.799 134.008 366.783 135.476 368.389C136.944 369.995 138.831 371.16 140.925 371.753C143.019 372.345 145.236 372.342 147.328 371.743C149.42 371.145 151.303 369.975 152.767 368.364C154.23 366.754 155.215 364.767 155.611 362.628C156.008 360.488 155.799 358.28 155.009 356.253C154.22 354.225 152.88 352.458 151.141 351.15H151.141Z" fill="#FFB6B6"/>
<path d="M121.83 135.017L121.308 135.235C116.448 137.261 112.155 140.442 108.802 144.501C105.448 148.56 103.134 153.376 102.06 158.531C99.2507 171.977 96.4866 191.427 98.672 209.638C102.532 241.803 94.6221 255.955 99.7684 266.248C104.915 276.54 106.201 272.681 104.915 280.4C103.628 288.12 97.1952 281.687 103.628 291.979C110.061 302.272 113.921 299.699 111.348 304.845C108.775 309.991 104.915 309.991 110.061 316.424C115.207 322.857 115.207 325.43 116.494 328.003C117.78 330.577 121.64 349.875 121.64 349.875C121.64 349.875 142.225 343.442 153.805 346.015C153.805 346.015 143.512 328.003 146.085 324.144C148.658 320.284 152.518 318.997 148.658 315.138C144.798 311.278 138.366 312.564 144.798 308.705C151.231 304.845 145.971 226.474 145.971 226.474L121.83 135.017Z" fill="#50B848"/>
<path d="M292.41 312.68L284.891 278.558L303.784 271.543L310.45 307.902C312.163 309.244 313.467 311.037 314.217 313.08C314.966 315.123 315.131 317.334 314.692 319.465C314.254 321.597 313.23 323.564 311.735 325.145C310.24 326.726 308.334 327.859 306.23 328.416C304.127 328.973 301.91 328.932 299.828 328.298C297.747 327.664 295.883 326.462 294.447 324.827C293.011 323.193 292.06 321.19 291.7 319.044C291.34 316.898 291.586 314.694 292.41 312.68V312.68Z" fill="#FFB6B6"/>
<path d="M215.912 106.658L216.473 106.577C221.685 105.829 227.001 106.363 231.96 108.132C236.919 109.901 241.373 112.853 244.935 116.73C254.234 126.842 266.567 142.132 274.016 158.894C287.172 188.497 292.209 201.971 293.059 213.447C293.909 224.923 290.828 222.267 295.886 228.238C300.944 234.21 303.175 225.39 302.92 237.525C302.665 249.66 298.033 249.427 302.878 252.529C307.724 255.632 311.039 253.655 309.913 261.816C308.786 269.977 310.104 272.187 310.317 275.056C310.529 277.925 317.096 296.478 317.096 296.478C317.096 296.478 296.121 301.494 287.493 309.633C287.493 309.633 287.11 288.891 282.923 286.894C278.736 284.896 274.762 285.768 276.101 280.476C277.44 275.184 283.624 272.995 276.122 272.974C268.62 272.953 223.543 176.156 223.543 176.156L215.912 106.658Z" fill="#50B848"/>
<path d="M184.458 80.5399C203.352 80.5399 218.668 65.2236 218.668 46.33C218.668 27.4364 203.352 12.1201 184.458 12.1201C165.564 12.1201 150.248 27.4364 150.248 46.33C150.248 65.2236 165.564 80.5399 184.458 80.5399Z" fill="#FFB6B6"/>
<path d="M224.333 35.2138C220.819 36.816 218.542 48.4202 215.781 45.7225C213.019 43.0248 213.203 39.5141 209.48 38.5185C206.473 37.7111 203.237 38.6338 200.494 40.0892C200.004 40.346 199.53 40.6252 199.067 40.9029C198.761 40.6988 198.457 40.5068 198.131 40.3296C195.678 39.0167 192.814 38.6947 190.131 39.4297C192.251 40.14 194.095 41.4989 195.401 43.3144C194.483 43.9295 193.553 44.5462 192.602 45.0927C184.657 49.6778 173.351 39.7077 164.988 35.9623C170.227 45.7925 167.647 49.8637 163.099 60.0303L162.942 60.6091C163.2 58.0611 155.315 56.1622 155.773 59.7491C156.571 63.3818 157.836 66.8962 159.536 70.2049C150.743 60.0379 144.734 47.5962 146.002 34.7616C146.278 32.0655 146.195 29.2207 147.585 26.8806C148.977 24.5526 151.88 22.9189 154.447 23.8067C154.23 19.7136 155.125 15.638 157.039 12.0133C158.953 8.38862 161.813 5.35023 165.315 3.22118C168.818 1.09212 172.832 -0.0480039 176.931 -0.0780055C181.03 -0.108007 185.06 0.973237 188.593 3.05079C191.876 4.97731 194.617 7.70202 197.626 10.0523C200.636 12.4026 204.105 14.4512 207.92 14.6453C210.341 14.762 212.975 14.171 215.055 15.4247C217.464 16.8795 217.876 19.9253 218.238 22.8561C216.089 23.0679 214.052 23.9156 212.388 25.2907C214.611 25.0639 216.849 25.544 218.784 26.6625C218.82 26.6791 218.855 26.6991 218.888 26.7221C220.162 31.5657 220.032 32.6395 224.333 35.2138Z" fill="#2F2E41"/>
<path d="M533.862 449.672H453.441C453 449.673 452.563 449.588 452.155 449.42C451.747 449.252 451.376 449.006 451.064 448.695C450.751 448.383 450.503 448.013 450.334 447.606C450.165 447.199 450.078 446.762 450.078 446.321C450.078 445.88 450.165 445.443 450.334 445.035C450.503 444.628 450.751 444.258 451.064 443.947C451.376 443.635 451.747 443.389 452.155 443.221C452.563 443.054 453 442.968 453.441 442.97H533.862C534.303 442.968 534.74 443.054 535.148 443.221C535.556 443.389 535.927 443.635 536.24 443.947C536.552 444.258 536.8 444.628 536.969 445.035C537.138 445.443 537.225 445.88 537.225 446.321C537.225 446.762 537.138 447.199 536.969 447.606C536.8 448.013 536.552 448.383 536.24 448.695C535.927 449.006 535.556 449.252 535.148 449.42C534.74 449.588 534.303 449.673 533.862 449.672V449.672Z" fill="#EBFF05"/>
<path d="M103.524 650.348C102.854 650.379 102.191 650.203 101.624 649.844C101.058 649.486 100.615 648.961 100.356 648.343C100.098 647.724 100.035 647.041 100.178 646.385C100.321 645.73 100.661 645.135 101.154 644.679L101.378 643.788C101.348 643.717 101.318 643.646 101.289 643.575C100.614 641.98 99.4829 640.621 98.0381 639.668C96.5933 638.715 94.8989 638.209 93.1679 638.216C91.4369 638.222 89.7463 638.74 88.3087 639.704C86.871 640.668 85.7502 642.036 85.0872 643.635C82.4374 650.017 79.0637 656.41 78.2331 663.157C77.8672 666.14 78.0215 669.164 78.6892 672.094C72.4655 658.518 69.2337 643.762 69.2129 628.827C69.2116 625.079 69.4198 621.334 69.8366 617.61C70.181 614.557 70.6589 611.525 71.2702 608.515C74.6059 592.185 81.768 576.878 92.1681 563.852C97.2018 561.106 101.273 556.882 103.832 551.751C104.759 549.906 105.414 547.937 105.777 545.905C105.21 545.98 103.636 537.332 104.065 536.801C103.273 535.6 101.857 535.004 100.993 533.832C96.6946 528.004 90.7728 529.022 87.6814 536.941C81.0773 540.274 81.0134 545.802 85.0656 551.118C87.6436 554.5 87.9979 559.077 90.2599 562.698C90.0271 562.996 89.7851 563.284 89.5524 563.582C85.2983 569.053 81.5905 574.927 78.4823 581.12C79.2382 574.182 78.336 567.163 75.85 560.641C73.3305 554.563 68.608 549.444 64.4493 544.189C59.454 537.878 49.2107 540.632 48.3306 548.633C48.3221 548.71 48.3137 548.788 48.3057 548.865C48.9234 549.214 49.528 549.584 50.1196 549.975C50.8629 550.472 51.4388 551.181 51.7719 552.01C52.105 552.84 52.1798 553.751 51.9865 554.623C51.7931 555.496 51.3406 556.29 50.6884 556.901C50.0361 557.512 49.2144 557.912 48.331 558.048L48.2405 558.062C48.4605 560.289 48.8495 562.495 49.4041 564.662C44.0689 585.295 55.5871 592.809 72.0335 593.147C72.3965 593.333 72.7503 593.519 73.1134 593.696C69.9905 602.546 68.0317 611.764 67.2861 621.119C66.864 626.639 66.8889 632.183 67.3606 637.698L67.3327 637.503C66.141 631.37 62.8695 625.836 58.0704 621.836C50.9427 615.981 40.8725 613.825 33.183 609.118C32.3658 608.594 31.4155 608.314 30.4444 608.311C29.4732 608.309 28.5217 608.584 27.7019 609.105C26.8821 609.626 26.2284 610.37 25.8177 611.25C25.4071 612.13 25.2566 613.109 25.3842 614.072C25.3945 614.14 25.405 614.209 25.4157 614.277C26.562 614.744 27.678 615.282 28.7574 615.888C29.3751 616.236 29.9798 616.606 30.5714 616.997C31.3147 617.494 31.8905 618.204 32.2237 619.033C32.5568 619.862 32.6315 620.773 32.4382 621.646C32.2448 622.519 31.7924 623.313 31.1401 623.924C30.4879 624.535 29.6662 624.935 28.7828 625.071L28.6922 625.085C28.6271 625.094 28.5712 625.103 28.5062 625.113C30.4647 629.789 33.2137 634.094 36.6326 637.838C39.9685 655.849 54.2963 657.558 69.6226 652.313H69.6319C71.3135 659.62 73.7499 666.733 76.902 673.537H102.873C102.966 673.248 103.05 672.95 103.134 672.661C100.73 672.813 98.3165 672.669 95.9475 672.233C97.8744 669.869 99.8013 667.486 101.728 665.122C101.771 665.077 101.812 665.031 101.849 664.982C102.827 663.772 103.813 662.571 104.791 661.361L104.791 661.359C104.843 657.65 104.418 653.949 103.525 650.349L103.524 650.348Z" fill="#F2F2F2"/>
</g>
<defs>
<clipPath id="clip0_918_106">
<rect width="720" height="676.116" fill="white"/>
</clipPath>
</defs>
</svg>
